<svg width="18" height="18" viewBox="0 0 18 18" fill="none" xmlns="http://www.w3.org/2000/svg">
<g clip-path="url(#clip0)">
<path d="M15.365 2.63605C13.6651 0.936176 11.405 0 9.00097 0C6.59695 0 4.33693 0.936176 2.63702 2.63605C0.937183 4.33593 0.00100708 6.59602 0.00100708 9C0.00100708 11.404 0.937183 13.6641 2.63706 15.364C4.33693 17.0638 6.59702 18 9.00101 18C10.4923 18 11.9699 17.6275 13.2739 16.9229C13.5369 16.7807 13.635 16.4522 13.4928 16.1891C13.3507 15.9261 13.0222 15.8281 12.7591 15.9702C11.6127 16.5897 10.3131 16.9171 9.00101 16.9171C4.63548 16.9171 1.08385 13.3655 1.08385 9C1.08385 4.63447 4.63548 1.08288 9.00097 1.08288C13.3665 1.08288 16.9181 4.63451 16.9181 9C16.9181 10.0332 16.6671 11.2625 16.4419 11.7197C16.2421 12.125 15.6762 12.6959 15.0433 12.6959C14.2242 12.6959 13.5578 12.0295 13.5578 11.2104V5.50139C13.5578 5.20239 13.3154 4.95995 13.0164 4.95995C12.7174 4.95995 12.4749 5.20235 12.4749 5.50139V6.05461C11.6384 5.0695 10.3916 4.44315 9.00097 4.44315C6.48836 4.44315 4.44412 6.48735 4.44412 9C4.44412 11.5126 6.48829 13.5568 9.00097 13.5568C10.4368 13.5568 11.7193 12.8892 12.5552 11.8482C12.8395 12.9569 13.8472 13.7787 15.0433 13.7787C16.0878 13.7787 17.0262 12.9837 17.4132 12.1983C17.7428 11.5295 18.0009 10.1246 18.0009 9.00004C18.001 6.59602 17.0648 4.33593 15.365 2.63605ZM9.00097 12.474C7.08545 12.474 5.52701 10.9156 5.52701 9C5.52701 7.08444 7.08541 5.52604 9.00097 5.52604C10.9165 5.52604 12.4749 7.08444 12.4749 9C12.4749 10.9156 10.9165 12.474 9.00097 12.474Z" fill="#4B4F4E"/>
</g>
<defs>
<clipPath id="clip0">
<rect width="18" height="18" fill="white"/>
</clipPath>
</defs>
</svg>
