<svg width="20" height="20" viewBox="0 0 20 20" fill="none" xmlns="http://www.w3.org/2000/svg">
<path d="M19.699 17.2269C19.6796 17.2159 17.8852 16.1977 16.6111 14.7899C17.5122 13.3583 17.9865 11.7151 17.9865 10.0089C17.9865 7.60665 17.051 5.3482 15.3524 3.64959C13.6537 1.95113 11.3953 1.01561 8.99324 1.01561C6.59105 1.01561 4.33259 1.95113 2.63413 3.64959C0.935518 5.3482 0 7.60665 0 10.0089C0 12.4109 0.935518 14.6694 2.63413 16.368C4.33259 18.0666 6.59105 19.0019 8.99324 19.0019C10.5264 19.0019 12.0279 18.6125 13.3585 17.8729C15.9807 19.3308 19.4239 18.3525 19.5749 18.3084C19.803 18.2417 19.9691 18.0449 19.9961 17.8089C20.0232 17.5726 19.9062 17.3435 19.699 17.2269ZM13.6862 16.6922C13.4957 16.5677 13.2503 16.564 13.0559 16.6826C11.8355 17.4272 10.4306 17.8209 8.99324 17.8209C4.68568 17.8209 1.18103 14.3164 1.18103 10.0089C1.18103 5.70113 4.68568 2.19664 8.99324 2.19664C13.3008 2.19664 16.8053 5.70113 16.8053 10.0089C16.8053 11.6254 16.3156 13.1767 15.389 14.4951C15.2375 14.7107 15.2471 15.0008 15.4128 15.2057C16.146 16.1134 17.092 16.8868 17.8453 17.4278C16.6701 17.556 14.9802 17.5368 13.6862 16.6922V16.6922Z" fill="white"/>
<path d="M12.9966 12.0433H4.98969C4.66345 12.0433 4.39917 12.3077 4.39917 12.6338C4.39917 12.9599 4.66345 13.2243 4.98969 13.2243H12.9966C13.3227 13.2243 13.5871 12.9599 13.5871 12.6338C13.5871 12.3077 13.3227 12.0433 12.9966 12.0433Z" fill="white"/>
<path d="M12.9966 9.41833H4.98969C4.66345 9.41833 4.39917 9.68277 4.39917 10.009C4.39917 10.3351 4.66345 10.5995 4.98969 10.5995H12.9966C13.3227 10.5995 13.5871 10.3351 13.5871 10.009C13.5871 9.68277 13.3227 9.41833 12.9966 9.41833Z" fill="white"/>
<path d="M12.9966 6.79351H4.98969C4.66345 6.79351 4.39917 7.05795 4.39917 7.38403C4.39917 7.71026 4.66345 7.97454 4.98969 7.97454H12.9966C13.3227 7.97454 13.5871 7.71026 13.5871 7.38403C13.5871 7.05795 13.3227 6.79351 12.9966 6.79351Z" fill="white"/>
</svg>
