<svg width="50" height="50" viewBox="0 0 50 50" fill="none" xmlns="http://www.w3.org/2000/svg">
<g clip-path="url(#clip0)">
<path d="M48.6679 8.11435L41.8497 1.29046C40.1319 -0.428888 37.1434 -0.432191 35.4189 1.29376L4.87485 32.1391C4.73944 32.2757 4.64175 32.4435 4.58848 32.6278L0.0431271 48.5504C-0.070118 48.9469 0.0408899 49.3746 0.332792 49.6667C0.549161 49.8833 0.838826 49.9999 1.13627 49.9999C1.24056 49.9999 1.34603 49.9854 1.44809 49.9566L17.3571 45.4073C17.5413 45.354 17.7088 45.2562 17.8453 45.1207L48.6679 14.5474C49.5269 13.6878 49.9996 12.5459 49.9996 11.3309C49.9996 10.1159 49.5269 8.97397 48.6679 8.11435ZM30.467 9.55991L34.6499 13.7428L12.811 35.5819L11.2436 32.4462C11.0505 32.0611 10.6577 31.8181 10.2271 31.8181H8.40728L30.467 9.55991ZM2.79084 47.2088L4.27102 42.0274L7.9722 45.7286L2.79084 47.2088ZM15.9088 43.4613L10.4719 45.0145L4.98511 39.5277L6.53826 34.0907H9.5245L11.4831 38.0081C11.593 38.2279 11.7716 38.4065 11.9914 38.5163L15.9087 40.475V43.4613H15.9088ZM18.1816 41.5924V39.7726C18.1816 39.342 17.9386 38.9492 17.5535 38.756L14.4178 37.1887L36.2567 15.3498L40.4397 19.5327L18.1816 41.5924ZM47.0643 12.9672L42.0538 17.933L32.0666 7.94582L37.0291 2.93864C37.8881 2.07966 39.3839 2.07966 40.2429 2.93864L47.061 9.75678C47.4905 10.1862 47.7269 10.7566 47.7269 11.3636C47.7269 11.9707 47.4905 12.541 47.0643 12.9672Z" fill="white"/>
</g>
<defs>
<clipPath id="clip0">
<rect width="50" height="50" fill="white"/>
</clipPath>
</defs>
</svg>
