<svg width="20" height="20" viewBox="0 0 20 20" fill="none" xmlns="http://www.w3.org/2000/svg">
<g clip-path="url(#clip0)">
<path d="M9.99998 4.35833L9.59484 3.79809C9.24558 3.31512 8.85263 2.90585 8.42353 2.57403L8.42351 2.57401C7.57865 1.92059 6.6285 1.59375 5.58701 1.59375C4.18041 1.59375 2.89354 2.15507 1.9541 3.17396L9.99998 4.35833ZM9.99998 4.35833L10.4051 3.79811M9.99998 4.35833L10.4051 3.79811M10.4051 3.79811C10.7546 3.31499 11.1474 2.90587 11.5763 2.57403C12.4213 1.92058 13.3715 1.59375 14.413 1.59375C15.8196 1.59375 17.1063 2.15507 18.0458 3.17401C18.9759 4.18292 19.5 5.57446 19.5 7.10419C19.5 8.65216 18.9299 10.0914 17.6315 11.6579L17.6315 11.6579C16.4546 13.0781 14.7529 14.5303 12.727 16.2567L12.727 16.2567L12.7093 16.2718C12.0256 16.8546 11.2493 17.5162 10.4437 18.2207L10.4435 18.221C10.3212 18.328 10.1637 18.3873 10 18.3873C9.83631 18.3873 9.67892 18.3281 9.55628 18.2207L9.55594 18.2204C8.74429 17.5107 7.96289 16.8448 7.27563 16.259L7.27349 16.2572L7.27346 16.2572M10.4051 3.79811L7.27346 16.2572M7.27346 16.2572C5.24726 14.5305 3.54556 13.0781 2.36862 11.658C1.07027 10.0913 0.5 8.65213 0.5 7.10434C0.5 5.57447 1.0241 4.18292 1.95406 3.17401L7.27346 16.2572Z" fill="white" stroke="white"/>
</g>
<defs>
<clipPath id="clip0">
<rect width="20" height="20" fill="white"/>
</clipPath>
</defs>
</svg>
