<svg width="18" height="18" viewBox="0 0 18 18" fill="none" xmlns="http://www.w3.org/2000/svg">
<path d="M8.11376 12.4563L7.8772 14.5836C7.86549 14.6894 7.89952 14.7956 7.97057 14.8751C8.04162 14.9546 8.14344 15 8.25 15H9.75001C9.85657 15 9.95838 14.9546 10.0294 14.8751C10.1005 14.7957 10.1345 14.6895 10.1228 14.5836L9.88624 12.4563C10.2704 12.1769 10.5 11.7349 10.5 11.25C10.5 10.4227 9.82728 9.74998 8.99998 9.74998C8.17269 9.74998 7.49997 10.4227 7.49997 11.25C7.49997 11.7349 7.72961 12.1769 8.11376 12.4563ZM8.99998 10.5C9.41342 10.5 9.74998 10.8366 9.74998 11.25C9.74998 11.5375 9.58664 11.7949 9.3237 11.9224C9.18051 11.9919 9.09666 12.1436 9.11424 12.3014L9.33105 14.25H8.66895L8.88576 12.3014C8.90334 12.1435 8.81949 11.9919 8.6763 11.9224C8.41337 11.7949 8.25003 11.5375 8.25003 11.25C8.24999 10.8366 8.58655 10.5 8.99998 10.5Z" fill="#4B4F4E"/>
<path d="M15.375 6.75H14.25V5.24999C14.25 2.35512 11.8949 0 9 0C6.10509 0 3.75001 2.35512 3.75001 5.24999V6.75H2.62501C2.41773 6.75 2.25 6.91773 2.25 7.12501V16.5C2.25 17.3273 2.92271 18 3.75001 18H14.25C15.0773 18 15.75 17.3273 15.75 16.5V7.12501C15.75 6.91773 15.5823 6.75 15.375 6.75ZM4.5 5.24999C4.5 2.76855 6.51857 0.749988 9 0.749988C11.4814 0.749988 13.5 2.76855 13.5 5.24999V6.75H12.75V5.24999C12.75 3.18234 11.0676 1.49998 9 1.49998C6.93236 1.49998 5.24999 3.18238 5.24999 5.24999V6.75H4.5V5.24999ZM12 5.24999V6.75H6.00001V5.24999C6.00001 3.59582 7.34583 2.25 9 2.25C10.6542 2.25 12 3.59582 12 5.24999ZM15 16.5C15 16.9134 14.6635 17.25 14.25 17.25H3.75001C3.33657 17.25 3.00002 16.9134 3.00002 16.5V7.49999H15V16.5Z" fill="#4B4F4E"/>
</svg>
