<svg width="12" height="12" viewBox="0 0 12 12" fill="none" xmlns="http://www.w3.org/2000/svg">
<path d="M6 0C3.67378 0 1.78125 1.89253 1.78125 4.21875C1.78125 5.0047 1.99896 5.77172 2.41099 6.43716L5.75986 11.8338C5.82401 11.9372 5.93702 12 6.05857 12C6.05951 12 6.06042 12 6.06136 12C6.18396 11.999 6.29721 11.9343 6.36019 11.8291L9.6237 6.38016C10.013 5.72878 10.2188 4.98138 10.2188 4.21875C10.2188 1.89253 8.32622 0 6 0ZM9.0203 6.01917L6.05325 10.9731L3.0086 6.0667C2.66564 5.51283 2.47969 4.87383 2.47969 4.21875C2.47969 2.28023 4.06148 0.698437 6 0.698437C7.93852 0.698437 9.51797 2.28023 9.51797 4.21875C9.51797 4.8544 9.34427 5.47706 9.0203 6.01917Z" fill="white"/>
<path d="M6 2.10938C4.83689 2.10938 3.89062 3.05564 3.89062 4.21875C3.89062 5.37443 4.82149 6.32812 6 6.32812C7.19304 6.32812 8.10938 5.36173 8.10938 4.21875C8.10938 3.05564 7.16311 2.10938 6 2.10938ZM6 5.62969C5.22054 5.62969 4.58906 4.9961 4.58906 4.21875C4.58906 3.44334 5.22459 2.80781 6 2.80781C6.77541 2.80781 7.40859 3.44334 7.40859 4.21875C7.40859 4.98476 6.79181 5.62969 6 5.62969Z" fill="white"/>
</svg>
